<svg id="Ticket_Rabbit" data-name="Ticket Rabbit" xmlns="http://www.w3.org/2000/svg" viewBox="0 0 608.79 116.03"><defs><style>.cls-1{fill:#00bf6f;}.cls-2{fill:#fff;}.cls-3{font-size:72px;fill:#404040;font-family:AzoSans-Medium, Azo Sans;font-weight:500;}</style></defs><path id="ticket" class="cls-1" d="M98.68,247.75c.21,5.09-2.76,8-6.51,8.05h-.83v1.65l.5.51a5.63,5.63,0,0,1,1.45,3.84,5.77,5.77,0,0,1-1.45,4.4l-.5.5v2.51l.4.43a5.82,5.82,0,0,1,1.52,4.16,5,5,0,0,1-.26,2,5.65,5.65,0,0,1-1.35,2.25l-.4.36v2.47l.48.5A5.88,5.88,0,0,1,93.08,284a8.08,8.08,0,0,1-.17,3.6,6.93,6.93,0,0,1-1.41,2.26c-.24.24-.25.28-.25,1.51v1.26l.46.46A5.3,5.3,0,0,1,93,295.37,7.81,7.81,0,0,1,93,299a5.37,5.37,0,0,1-1.29,2.32l-.52.52v2.4l.42.43c2.06,2.16,2.08,6.32,0,8.35l-.46.46v1.75l1,.08c3.22.27,5.8,3.51,6.3,7.88a10.67,10.67,0,0,1,.06,2.15l-.08.92,3.19.08c1.76.05,11.28.15,21.17.23,19.25.16,39,.34,60.49.57,7.37.09,14.33.15,15.46.15h2.08v-1.53a9.1,9.1,0,0,1,.25-2.67c.85-3.84,3.17-6.39,6-6.65l1.08-.1,0-.86,0-.85-.46-.46a6.17,6.17,0,0,1-1.34-2.42,7.35,7.35,0,0,1,0-3.55,5.68,5.68,0,0,1,1.38-2.43l.51-.53V303l-.51-.52a5.52,5.52,0,0,1-1.28-2.21,8.34,8.34,0,0,1,0-3.88,5.8,5.8,0,0,1,1.33-2.29l.47-.46v-2.39l-.34-.34a6.27,6.27,0,0,1-1.4-2.37,6.89,6.89,0,0,1,0-3.82,6,6,0,0,1,1.54-2.54c.3-.23.3-.24.3-1.37v-1.13l-.54-.62a6.45,6.45,0,0,1-1.22-6.16,5.54,5.54,0,0,1,1.48-2.39l.28-.17v-1.28c0-1.15,0-1.27-.21-1.43a6.09,6.09,0,0,1-1.76-3.52A6.25,6.25,0,0,1,208,259l.52-.53v-1.56h-.65a6.07,6.07,0,0,1-3.79-1.68,11.56,11.56,0,0,1-2.19-3.36c-.58-1.49-.83-.69-.84-2.61v-1.74l-3.28-.09c-1.8,0-11.27-.14-21-.23-18.55-.16-37.47-.33-60.54-.57-7.52-.09-14.55-.14-15.61-.14H98.63Z" transform="translate(-90.91 -219.8)"/><path id="rabbit" class="cls-2" d="M187.8,274.16a16.09,16.09,0,0,0-12.59-4.64,5.55,5.55,0,0,1-5-1.95c-6.34-6.7-14.27-10.62-23.14-12.8a71.52,71.52,0,0,0-12.26-1.8c-.56,0-1.12-.05-1.67,0a2.29,2.29,0,0,0-2.22,3.14,20.09,20.09,0,0,0,2.17,4,41.43,41.43,0,0,0,22.9,16.3,46.5,46.5,0,0,0,9.57,1.91,40.72,40.72,0,0,0-1.23,4.8,42.07,42.07,0,0,0,0,5c.07,0-.09,0-.24,0a88.41,88.41,0,0,0-25.83-3.38q-16.09,0-32.2,0H93a8.88,8.88,0,0,1-.26,2.89,7,7,0,0,1-1.3,2.26c-.23.24-.24.28-.24,1.51v1.26l.28.3a2.38,2.38,0,0,1,1.6-.58h12.82l22.64,0a8.34,8.34,0,0,1,1.5.1,1.81,1.81,0,0,1,1.62,1.92,1.94,1.94,0,0,1-1.65,1.93,7.43,7.43,0,0,1-1.25.06H93.25l-.25,0a8.38,8.38,0,0,1-.17,2.66,5.48,5.48,0,0,1-1.2,2.32l-.48.52v2.4l.39.43a7,7,0,0,1,1.09,6.53,2.89,2.89,0,0,1,.53-.05H118c1.25,0,1.85.37,2.16,1.21a1.9,1.9,0,0,1-1.52,2.64,6.41,6.41,0,0,1-1.16.09H93.31A2.12,2.12,0,0,1,91.15,314v1.28l.9.08c2.63.24,4.81,2.78,5.6,6.37h28.62a9.58,9.58,0,0,0,.63,2.18,2.72,2.72,0,0,0,4.39.34c1.22-1.23,2.36-2.54,3.62-3.73,4.65-4.37,10.27-7,16.35-8.65a40.56,40.56,0,0,1,19.58-.6,29.78,29.78,0,0,1,10.08,4.2,9.24,9.24,0,0,0,1.92,1,2.49,2.49,0,0,0,2.66-.51,2.39,2.39,0,0,0,.54-2.63,12.37,12.37,0,0,0-3.23-4.74,21.79,21.79,0,0,0-7-4.8l-1.27-.6c1.13-1.4,2.15-2.75,3.26-4a15.79,15.79,0,0,1,5.33-3.86,9.9,9.9,0,0,1,2.25-.57c3.64-.78,6.73-2.38,8.68-5.71,1.68-2.88,1.69-3.15.06-6C192.31,279.83,190.5,276.69,187.8,274.16Zm-47.6-13.54c9.65.19,17,4.89,23.75,11.15C158.86,272.38,143.34,265.1,140.2,260.62Zm-19.58,44.32c-3.46,0-6.92,0-10.38,0v0c-3.53,0-7,0-10.56,0-1.46,0-2.26-.75-2.27-2a1.86,1.86,0,0,1,2.09-2c2.82,0,5.64,0,8.47,0h12.65c1.65,0,2.61.74,2.62,1.95S122.3,304.94,120.62,304.94Zm60.1-20.82a3.52,3.52,0,0,1-3.46-3.57,3.47,3.47,0,0,1,3.63-3.47,3.55,3.55,0,0,1,3.5,3.64A3.6,3.6,0,0,1,180.72,284.12Z" transform="translate(-90.91 -219.8)"/><path class="cls-1" d="M122,324.05c0,1.12-.46,2-1.15,2.21a3.61,3.61,0,0,1-.87.07H107.75v0H95.22c-.83,0-1.32-.5-1.51-1.51-.32-1.67.31-3.07,1.42-3.08,3,0,5.94,0,8.92,0l15.73,0a4.05,4.05,0,0,1,1,.12C121.56,322.07,122,322.88,122,324.05Z" transform="translate(-90.91 -219.8)"/><path class="cls-1" d="M123.19,303c0,1.29-.93,2.05-2.61,2.06H110.19v0c-3.52,0-7,0-10.56,0-1.45,0-2.26-.76-2.27-2a1.89,1.89,0,0,1,2.1-2c2.82,0,5.64,0,8.46,0h12.66C122.22,301,123.19,301.74,123.19,303Z" transform="translate(-90.91 -219.8)"/><path class="cls-1" d="M118.57,315.11a6.52,6.52,0,0,1-1.17.1H93.26c-1.5,0-2.32-.75-2.3-2s.77-1.9,2.16-1.91c2.32,0,4.64,0,6.95,0h17.86c1.24,0,1.85.36,2.15,1.21A1.89,1.89,0,0,1,118.57,315.11Z" transform="translate(-90.91 -219.8)"/><path class="cls-1" d="M131.65,294.48a1.91,1.91,0,0,1-1.64,1.93,8.73,8.73,0,0,1-1.25.07H111.24v0h-18c-1.2,0-1.9-.44-2.18-1.32a2,2,0,0,1,2-2.69c4.27,0,8.55,0,12.82,0l22.64,0a8.34,8.34,0,0,1,1.5.1A1.78,1.78,0,0,1,131.65,294.48Z" transform="translate(-90.91 -219.8)"/><path class="cls-2" d="M120.69,257.4c-1,0-1.9,0-2.85,0a1.76,1.76,0,1,1-.09-3.52c2-.06,3.91,0,5.86,0a1.73,1.73,0,0,1,1.65,2,1.6,1.6,0,0,1-1.72,1.56c-.47,0-1,0-1.42,0Z" transform="translate(-90.91 -219.8)"/><path class="cls-2" d="M127,265.24c-.78,0-1.57,0-2.35,0l-10.48,0c-1.29,0-2-.54-2.17-1.53a1.72,1.72,0,0,1,1.79-2c2.21,0,4.41,0,6.62,0s4.3,0,6.45,0a1.84,1.84,0,0,1,1.94,1.61A1.69,1.69,0,0,1,127,265.24Z" transform="translate(-90.91 -219.8)"/><path class="cls-2" d="M135.57,271.85c-.18.68-.85.9-1.55.9H122.88v0H112.24a3.81,3.81,0,0,1-1.31-.17,1.66,1.66,0,0,1-1-1.91,1.6,1.6,0,0,1,1.57-1.36c1.36,0,2.73,0,4.1,0h18c.72,0,1.51,0,1.82.75A3,3,0,0,1,135.57,271.85Z" transform="translate(-90.91 -219.8)"/><path class="cls-2" d="M184.49,256.28a6,6,0,0,1-.9.54,6.31,6.31,0,0,1-1.28.39,2.9,2.9,0,0,0-2.51,2.34c-.23.82-.54,1.6-.82,2.4l-.36,0c-.23-.73-.52-1.45-.71-2.19a3.18,3.18,0,0,0-2.66-2.55,17.19,17.19,0,0,1-2.08-.64v-.34a9.83,9.83,0,0,1,1.82-.63,3.36,3.36,0,0,0,3-2.93,14.69,14.69,0,0,1,.67-1.82h.25a6.42,6.42,0,0,1,.37.68,3.9,3.9,0,0,1,.3.87,3.77,3.77,0,0,0,3.5,3.36A6.85,6.85,0,0,1,184.49,256.28Z" transform="translate(-90.91 -219.8)"/><path class="cls-2" d="M141.14,279.69c-.18.68-.85.9-1.55.9H128.45v0c-3.54,0-7.09,0-10.64,0a3.83,3.83,0,0,1-1.31-.16,1.68,1.68,0,0,1-1-1.92,1.61,1.61,0,0,1,1.57-1.36c1.36,0,2.73,0,4.1,0h18c.72,0,1.51,0,1.82.75A3,3,0,0,1,141.14,279.69Z" transform="translate(-90.91 -219.8)"/><text class="cls-3" x="-90.91" y="-219.8"><tspan x="133.09" y="96.44">Ticket Rabbit®</tspan></text></svg>